<svg xmlns="http://www.w3.org/2000/svg" xmlns:xlink="http://www.w3.org/1999/xlink" width="500" zoomAndPan="magnify" viewBox="0 0 375 374.999991" height="500" preserveAspectRatio="xMidYMid meet" version="1.0"><defs><g/><clipPath id="354b7bed96"><path d="M 201 127 L 272 127 L 272 198 L 201 198 Z M 201 127 " clip-rule="nonzero"/></clipPath><clipPath id="5a535f9b12"><path d="M 187.5 138.476562 L 236.519531 93.171875 L 304.734375 166.976562 L 255.714844 212.28125 Z M 187.5 138.476562 " clip-rule="nonzero"/></clipPath><clipPath id="b69f388b10"><path d="M 187.5 138.476562 L 236.519531 93.171875 L 304.734375 166.976562 L 255.714844 212.28125 Z M 187.5 138.476562 " clip-rule="nonzero"/></clipPath><clipPath id="76634a9066"><path d="M 237 94 L 307 94 L 307 165 L 237 165 Z M 237 94 " clip-rule="nonzero"/></clipPath><clipPath id="a470a3114c"><path d="M 222.910156 105.75 L 271.929688 60.445312 L 340.140625 134.25 L 291.125 179.554688 Z M 222.910156 105.75 " clip-rule="nonzero"/></clipPath><clipPath id="2368a71816"><path d="M 222.910156 105.75 L 271.929688 60.445312 L 340.140625 134.25 L 291.125 179.554688 Z M 222.910156 105.75 " clip-rule="nonzero"/></clipPath><clipPath id="269ecad6ad"><rect x="0" width="93" y="0" height="216"/></clipPath></defs><g clip-path="url(#354b7bed96)"><g clip-path="url(#5a535f9b12)"><g clip-path="url(#b69f388b10)"><path fill="#3b82f6" d="M 271.152344 130.316406 L 211.335938 127.65625 C 199.78125 127.144531 197.828125 149.652344 211.519531 150.023438 L 248.742188 151.03125 L 245.898438 188.484375 C 245.03125 199.890625 267.277344 201.09375 267.910156 189.503906 Z M 271.152344 130.316406 " fill-opacity="1" fill-rule="nonzero"/></g></g></g><g clip-path="url(#76634a9066)"><g clip-path="url(#a470a3114c)"><g clip-path="url(#2368a71816)"><path fill="#3b82f6" d="M 306.5625 97.589844 L 246.742188 94.929688 C 235.1875 94.417969 233.238281 116.925781 246.925781 117.296875 L 284.148438 118.304688 L 281.304688 155.757812 C 280.441406 167.164062 302.683594 168.367188 303.320312 156.777344 Z M 306.5625 97.589844 " fill-opacity="1" fill-rule="nonzero"/></g></g></g><g transform="matrix(1, 0, 0, 1, 140, 100)"><g clip-path="url(#269ecad6ad)"><g fill="#ffffff" fill-opacity="1"><g transform="translate(0.398546, 169.582951)"><g><path d="M 30.796875 -17.625 L 75.84375 -17.8125 C 79.289062 -17.8125 81.875 -16.859375 83.59375 -14.953125 C 85.3125 -13.054688 86.171875 -10.976562 86.171875 -8.71875 C 86.171875 -6.46875 85.3125 -4.453125 83.59375 -2.671875 C 81.875 -0.890625 79.289062 0 75.84375 0 L 11.390625 0 C 7.953125 0 5.3125 -0.890625 3.46875 -2.671875 C 1.632812 -4.453125 0.71875 -6.46875 0.71875 -8.71875 C 0.71875 -11.21875 1.84375 -13.59375 4.09375 -15.84375 L 54.84375 -72.640625 L 13.359375 -72.46875 C 10.148438 -72.46875 7.6875 -73.382812 5.96875 -75.21875 C 4.25 -77.0625 3.390625 -79.113281 3.390625 -81.375 C 3.390625 -83.738281 4.25 -85.867188 5.96875 -87.765625 C 7.6875 -89.671875 10.148438 -90.625 13.359375 -90.625 L 74.609375 -90.625 C 77.804688 -90.625 80.382812 -89.644531 82.34375 -87.6875 C 84.300781 -85.726562 85.28125 -83.5625 85.28125 -81.1875 C 85.28125 -79.050781 84.210938 -76.796875 82.078125 -74.421875 Z M 30.796875 -17.625 "/></g></g></g></g></g></svg>